<?xml version="1.0" encoding="UTF-8"?>
<svg xmlns="http://www.w3.org/2000/svg" viewBox="0 0 1700 1500" font-family="-apple-system, system-ui, sans-serif">
  <defs>
    <marker id="ar" viewBox="0 0 10 10" refX="9" refY="5" markerWidth="7" markerHeight="7" orient="auto-start-reverse">
      <path d="M0,0 L10,5 L0,10 z" fill="#111827"/>
    </marker>
    <marker id="ar-b" viewBox="0 0 10 10" refX="9" refY="5" markerWidth="7" markerHeight="7" orient="auto-start-reverse">
      <path d="M0,0 L10,5 L0,10 z" fill="#1d4ed8"/>
    </marker>
    <marker id="ar-p" viewBox="0 0 10 10" refX="9" refY="5" markerWidth="7" markerHeight="7" orient="auto-start-reverse">
      <path d="M0,0 L10,5 L0,10 z" fill="#7c3aed"/>
    </marker>
    <marker id="ar-r" viewBox="0 0 10 10" refX="9" refY="5" markerWidth="7" markerHeight="7" orient="auto-start-reverse">
      <path d="M0,0 L10,5 L0,10 z" fill="#dc2626"/>
    </marker>
    <marker id="ar-g" viewBox="0 0 10 10" refX="9" refY="5" markerWidth="7" markerHeight="7" orient="auto-start-reverse">
      <path d="M0,0 L10,5 L0,10 z" fill="#059669"/>
    </marker>
    <style>
      .title       { font-size:22px; font-weight:800; fill:#0f172a; }
      .subtitle    { font-size:13px; fill:#475569; }
      .layer       { fill:#f8fafc; stroke:#0f172a; stroke-width:1.5; }
      .layer-label { font-size:11px; font-weight:700; fill:#64748b; letter-spacing:1.5px; }
      .box         { fill:#ffffff; stroke:#0f172a; stroke-width:1.4; }
      .box-blue    { fill:#eff6ff; stroke:#1d4ed8; stroke-width:1.4; }
      .box-purple  { fill:#f5f3ff; stroke:#7c3aed; stroke-width:1.4; }
      .box-red     { fill:#fef2f2; stroke:#dc2626; stroke-width:1.4; }
      .box-green   { fill:#ecfdf5; stroke:#059669; stroke-width:1.4; }
      .box-gray    { fill:#f3f4f6; stroke:#6b7280; stroke-width:1.4; stroke-dasharray:4 3; }
      .nested      { fill:#fafafa; stroke:#94a3b8; stroke-width:1; stroke-dasharray:4 3; }
      .name        { font-size:13px; font-weight:700; fill:#0f172a; }
      .name-blue   { font-size:13px; font-weight:700; fill:#1d4ed8; }
      .name-purple { font-size:13px; font-weight:700; fill:#7c3aed; }
      .name-red    { font-size:13px; font-weight:700; fill:#dc2626; }
      .name-green  { font-size:13px; font-weight:700; fill:#059669; }
      .small       { font-size:10.5px; fill:#334155; }
      .mono        { font-family:ui-monospace, "SF Mono", Menlo, monospace; font-size:10px; fill:#334155; }
      .num         { font-size:10px; font-weight:800; fill:#0f172a; }
      .num-blue    { font-size:10px; font-weight:800; fill:#1d4ed8; }
      .num-purple  { font-size:10px; font-weight:800; fill:#7c3aed; }
      .num-red     { font-size:10px; font-weight:800; fill:#dc2626; }
      .num-green   { font-size:10px; font-weight:800; fill:#059669; }
      .L  { stroke:#111827; stroke-width:1.3; fill:none; }
      .Lb { stroke:#1d4ed8; stroke-width:1.3; fill:none; }
      .Lp { stroke:#7c3aed; stroke-width:1.3; fill:none; }
      .Lr { stroke:#dc2626; stroke-width:1.3; fill:none; stroke-dasharray:5 3; }
      .Lg { stroke:#059669; stroke-width:1.3; fill:none; }
      .pill        { fill:#0f172a; }
      .pill-txt    { font-size:10px; font-weight:700; fill:#ffffff; }
      .tag         { font-size:9px; font-weight:600; fill:#475569; }
    </style>
  </defs>

  <!-- ===== HEADER ===== -->
  <text x="30" y="38" class="title">Nubian Agent — Full Architecture</text>
  <text x="30" y="60" class="subtitle">12 layers · 4 LLM roles · doom-loop recovery · pixel grounding · QEMU-in-Docker sandbox with X11 controller</text>

  <!-- legend top-right -->
  <g transform="translate(1150, 22)">
    <rect x="0" y="0" width="520" height="62" rx="6" class="layer"/>
    <text x="14" y="18" class="layer-label">LEGEND</text>
    <line x1="14" y1="32" x2="48" y2="32" class="Lb" marker-end="url(#ar-b)"/>
    <text x="56" y="36" class="small">data plane (screenshots, actions, evidence)</text>
    <line x1="14" y1="48" x2="48" y2="48" class="Lp" marker-end="url(#ar-p)"/>
    <text x="56" y="52" class="small">control plane (LLM decisions)</text>
    <line x1="280" y1="32" x2="314" y2="32" class="Lr" marker-end="url(#ar-r)"/>
    <text x="322" y="36" class="small">recovery / supervisor intervention</text>
    <line x1="280" y1="48" x2="314" y2="48" class="Lg" marker-end="url(#ar-g)"/>
    <text x="322" y="52" class="small">telemetry / persistence</text>
  </g>

  <!-- ============================================================ -->
  <!-- LAYER 0 — User                                               -->
  <!-- ============================================================ -->
  <rect x="20" y="90" width="1100" height="70" rx="8" class="layer"/>
  <text x="32" y="108" class="layer-label">L0 · USER</text>
  <rect x="40" y="115" width="280" height="38" rx="6" class="box"/>
  <text x="55" y="132" class="name">Operator</text>
  <text x="55" y="147" class="small">types task · cancels · approves verdict</text>

  <rect x="340" y="115" width="280" height="38" rx="6" class="box"/>
  <text x="355" y="132" class="name">Web UI</text>
  <text x="355" y="147" class="mono">templates/demo/computer.html</text>

  <rect x="640" y="115" width="280" height="38" rx="6" class="box"/>
  <text x="655" y="132" class="name">noVNC viewer</text>
  <text x="655" y="147" class="mono">http://&lt;sandbox&gt;:8006</text>

  <rect x="940" y="115" width="160" height="38" rx="6" class="box-green"/>
  <text x="955" y="132" class="name-green">Trace replay</text>
  <text x="955" y="147" class="mono">agent-replay-*.jsonl</text>

  <!-- ============================================================ -->
  <!-- LAYER 1 — Spring Boot API                                    -->
  <!-- ============================================================ -->
  <rect x="20" y="175" width="1100" height="90" rx="8" class="layer"/>
  <text x="32" y="193" class="layer-label">L1 · APPLICATION TRANSPORT</text>

  <rect x="40" y="200" width="240" height="58" rx="6" class="box"/>
  <text x="55" y="218" class="name">REST controllers</text>
  <text x="55" y="234" class="mono">POST /agent/run</text>
  <text x="55" y="248" class="mono">GET  /agent/state · /trace</text>

  <rect x="300" y="200" width="240" height="58" rx="6" class="box"/>
  <text x="315" y="218" class="name">WebSocket stream</text>
  <text x="315" y="234" class="small">live trace events, token usage</text>
  <text x="315" y="248" class="small">screenshots to Web UI</text>

  <rect x="560" y="200" width="240" height="58" rx="6" class="box-gray"/>
  <text x="575" y="218" class="name">RabbitMQ task queue</text>
  <text x="575" y="234" class="small">decoupled task execution</text>
  <text x="575" y="248" class="mono">amqp://guest@:5672</text>

  <rect x="820" y="200" width="280" height="58" rx="6" class="box-gray"/>
  <text x="835" y="218" class="name">Redis cache</text>
  <text x="835" y="234" class="small">VerdictCache · session state</text>
  <text x="835" y="248" class="mono">redis://:6379</text>

  <!-- ============================================================ -->
  <!-- LAYER 2 — Orchestration                                      -->
  <!-- ============================================================ -->
  <rect x="20" y="280" width="1100" height="170" rx="8" class="layer"/>
  <text x="32" y="298" class="layer-label">L2 · AGENT ORCHESTRATION  ·  Agent.java main loop</text>

  <rect x="40" y="308" width="500" height="130" rx="6" class="box"/>
  <text x="55" y="328" class="name">Agent.java — per-turn loop</text>
  <text x="55" y="346" class="small">1. capture screenshot · 2. plan · 3. ground · 4. dispatch action</text>
  <text x="55" y="362" class="small">5. settle (600 ms) · 6. post-screenshot · 7. verify · 8. update plan</text>
  <text x="55" y="378" class="small">9. supervisor every N or on doom-loop signal</text>
  <text x="55" y="402" class="mono">max-steps=400 · flow=seeact</text>
  <text x="55" y="418" class="mono">observation-settle-ms=600</text>

  <rect x="560" y="308" width="260" height="130" rx="6" class="box"/>
  <text x="575" y="328" class="name">Plan state</text>
  <text x="575" y="348" class="mono">WaypointPlan</text>
  <text x="575" y="362" class="small">durable per-checkpoint state</text>
  <text x="575" y="382" class="mono">RecursiveTodoState</text>
  <text x="575" y="396" class="small">active step + acceptance</text>
  <text x="575" y="416" class="small">updateActiveText · markActiveDone</text>

  <rect x="840" y="308" width="260" height="130" rx="6" class="box-green"/>
  <text x="855" y="328" class="name-green">Trace + telemetry</text>
  <text x="855" y="346" class="small">per-turn event log</text>
  <text x="855" y="362" class="small">token usage per LLM call</text>
  <text x="855" y="378" class="small">JSONL sink (failure dumps)</text>
  <text x="855" y="394" class="mono">agent-replay-*.jsonl</text>
  <text x="855" y="416" class="small">replayable in Web UI</text>

  <!-- ============================================================ -->
  <!-- LAYER 3 — Decision LLMs                                      -->
  <!-- ============================================================ -->
  <rect x="20" y="465" width="1100" height="200" rx="8" class="layer"/>
  <text x="32" y="483" class="layer-label">L3 · DECISION LLMs  ·  same model, 4 roles, different prompts</text>

  <rect x="40" y="495" width="250" height="155" rx="6" class="box-purple"/>
  <text x="55" y="514" class="name-purple">SeeActPlanner</text>
  <text x="55" y="530" class="small">role=PLANNER</text>
  <text x="55" y="546" class="small">input: screenshot + plan</text>
  <text x="55" y="562" class="small">output: {action, target_desc}</text>
  <text x="55" y="582" class="mono">gemini-3.1-pro-preview</text>
  <text x="55" y="606" class="small">BestOfNJudge (opt-in)</text>
  <text x="55" y="622" class="small">parallel candidate sampling</text>
  <text x="55" y="638" class="small">LLM-as-judge picks winner</text>

  <rect x="310" y="495" width="250" height="155" rx="6" class="box-purple"/>
  <text x="325" y="514" class="name-purple">Verifier</text>
  <text x="325" y="530" class="small">role=VERIFIER</text>
  <text x="325" y="546" class="small">"did the step succeed?"</text>
  <text x="325" y="562" class="small">checks acceptance criteria</text>
  <text x="325" y="582" class="small">drives ADVANCE on pass</text>
  <text x="325" y="606" class="name-purple">VerdictCache</text>
  <text x="325" y="622" class="small">de-dupes repeated checks</text>
  <text x="325" y="638" class="small">across replan attempts</text>

  <rect x="580" y="495" width="250" height="155" rx="6" class="box-red"/>
  <text x="595" y="514" class="name-red">SupervisorAdvisor</text>
  <text x="595" y="530" class="small">role=SUPERVISOR · every 10 turns</text>
  <text x="595" y="546" class="small">OR immediately on doom-loop</text>
  <text x="595" y="566" class="name-red">Verdicts:</text>
  <text x="595" y="582" class="small">CONTINUE  — keep going</text>
  <text x="595" y="598" class="small">MODIFY    — rewrite active step</text>
  <text x="595" y="614" class="small">ADVANCE   — mark done, skip</text>
  <text x="595" y="630" class="small">EXECUTE   — take over (≤6 actions)</text>
  <text x="595" y="646" class="mono">angry bird mode → vision on</text>

  <rect x="850" y="495" width="250" height="155" rx="6" class="box-green"/>
  <text x="865" y="514" class="name-green">LlmClient + provider routing</text>
  <text x="865" y="530" class="small">Gemini · OpenRouter · vLLM</text>
  <text x="865" y="546" class="mono">Lane.VISION · Lane.TEXT</text>
  <text x="865" y="562" class="small">per-call token telemetry</text>
  <text x="865" y="578" class="small">cost guard (URL-level only)</text>
  <text x="865" y="602" class="small">retry on 429 / 5xx</text>
  <text x="865" y="618" class="small">cached prompt prefix</text>
  <text x="865" y="638" class="mono">no costSafeModel name swap</text>

  <!-- ============================================================ -->
  <!-- LAYER 4 — Doom-loop + Recovery                               -->
  <!-- ============================================================ -->
  <rect x="20" y="680" width="1100" height="100" rx="8" class="layer"/>
  <text x="32" y="698" class="layer-label">L4 · DOOM-LOOP DETECTORS &amp; RECOVERY</text>

  <rect x="40" y="708" width="330" height="64" rx="6" class="box-red"/>
  <text x="55" y="726" class="name-red">scroll_loop_detected</text>
  <text x="55" y="742" class="small">≥ 4 consecutive navigation-only actions</text>
  <text x="55" y="758" class="small">→ fires supervisor in angry bird mode (vision on)</text>

  <rect x="390" y="708" width="330" height="64" rx="6" class="box-red"/>
  <text x="405" y="726" class="name-red">repeated_action_detected</text>
  <text x="405" y="742" class="small">same non-nav routeHash ≥ 2× in last 5 turns</text>
  <text x="405" y="758" class="small">postExecute rolls back failed-call history (ok=false)</text>

  <rect x="740" y="708" width="360" height="64" rx="6" class="box-red"/>
  <text x="755" y="726" class="name-red">Recovery whitelist</text>
  <text x="755" y="742" class="small">supervisor EXECUTE only fires sanctioned actions</text>
  <text x="755" y="758" class="small">no hint injection back to planner (text was ignored in v1)</text>

  <!-- ============================================================ -->
  <!-- LAYER 5 — Grounding                                          -->
  <!-- ============================================================ -->
  <rect x="20" y="795" width="1100" height="170" rx="8" class="layer"/>
  <text x="32" y="813" class="layer-label">L5 · PIXEL GROUNDING  ·  description → (x, y)</text>

  <rect x="40" y="824" width="300" height="130" rx="6" class="box-blue"/>
  <text x="55" y="843" class="name-blue">UGroundClient</text>
  <text x="55" y="859" class="small">backend=uitars15</text>
  <text x="55" y="875" class="small">coord-space=native (1024² px)</text>
  <text x="55" y="895" class="small">prompt: "Locate X, output bbox"</text>
  <text x="55" y="911" class="small">parses (x, y) tolerant of formats</text>
  <text x="55" y="931" class="small">re-rank via multi-candidate mode</text>
  <text x="55" y="947" class="small">~1 s warm per call</text>

  <rect x="360" y="824" width="320" height="130" rx="6" class="box-blue"/>
  <text x="375" y="843" class="name-blue">UI-TARS-1.5-7B (vLLM)</text>
  <text x="375" y="859" class="small">any GPU VM</text>
  <text x="375" y="875" class="small">native-px output @ 1024²</text>
  <text x="375" y="895" class="small">never crop / never rescale by 1024/1000</text>
  <text x="375" y="911" class="small">simple-coords prompt = best per-step (2.1 s, ~5 px)</text>
  <text x="375" y="927" class="small">multi-candidate = ranked (4.2 s)</text>
  <text x="375" y="947" class="small">Best-of-N clustering for low-confidence</text>

  <rect x="700" y="824" width="400" height="130" rx="6" class="box-blue"/>
  <text x="715" y="843" class="name-blue">Two-brain rescue (tiny targets)</text>
  <text x="715" y="861" class="small">1. white-divider screenshot</text>
  <text x="715" y="877" class="small">2. Gemini-Flash-Lite picks side + description</text>
  <text x="715" y="893" class="small">3. crop + pad to 1000²</text>
  <text x="715" y="909" class="small">4. UI-TARS Q8 grounds inside crop</text>
  <text x="715" y="925" class="small">5. inverse-map back to original coords</text>
  <text x="715" y="947" class="small">~3 s end-to-end · used only when first grounding fails</text>

  <!-- ============================================================ -->
  <!-- LAYER 6 — Tool dispatch                                      -->
  <!-- ============================================================ -->
  <rect x="20" y="980" width="1100" height="140" rx="8" class="layer"/>
  <text x="32" y="998" class="layer-label">L6 · TOOL DISPATCH  ·  Tools.invoke(name, args)</text>

  <rect x="40" y="1008" width="350" height="100" rx="6" class="box"/>
  <text x="55" y="1026" class="name">Action catalog</text>
  <text x="55" y="1044" class="mono">click {x,y,button?}</text>
  <text x="55" y="1058" class="mono">type_text {text, mode?: append|replace}</text>
  <text x="55" y="1072" class="mono">hotkey {combo}</text>
  <text x="55" y="1086" class="mono">scroll {direction, amount?}    activate_window/close_window {name}</text>
  <text x="55" y="1100" class="mono">write_file {path, content}     wait {ms}</text>

  <rect x="410" y="1008" width="320" height="100" rx="6" class="box"/>
  <text x="425" y="1026" class="name">Batch schema validator</text>
  <text x="425" y="1044" class="small">required coords-or-description per subaction</text>
  <text x="425" y="1060" class="small">rejects malformed scroll (no implicit sign)</text>
  <text x="425" y="1076" class="small">scroll requires explicit direction</text>
  <text x="425" y="1092" class="small">no dy/dx sign-inference fallback (v1 bug class)</text>

  <rect x="750" y="1008" width="350" height="100" rx="6" class="box-purple"/>
  <text x="765" y="1026" class="name-purple">CodeAct path (future)</text>
  <text x="765" y="1044" class="small">cdp_macro — Chrome devtools macros</text>
  <text x="765" y="1060" class="small">call_tool — bridge for LLM-emitted python</text>
  <text x="765" y="1076" class="small">goal: "LLM outside the loop, sandbox runs the loop"</text>
  <text x="765" y="1092" class="small">replaces per-atom JSON tool calls</text>

  <!-- ============================================================ -->
  <!-- LAYER 7 — Sandbox HTTP                                       -->
  <!-- ============================================================ -->
  <rect x="20" y="1135" width="1100" height="100" rx="8" class="layer"/>
  <text x="32" y="1153" class="layer-label">L7 · SANDBOX HTTP CLIENT  ·  Sandbox.java</text>

  <rect x="40" y="1163" width="340" height="64" rx="6" class="box-blue"/>
  <text x="55" y="1181" class="name-blue">Eyes</text>
  <text x="55" y="1197" class="mono">GET /eyes/screenshot   → PNG bytes</text>
  <text x="55" y="1213" class="mono">GET /eyes/evidence     → windows / fs state</text>

  <rect x="400" y="1163" width="340" height="64" rx="6" class="box-blue"/>
  <text x="415" y="1181" class="name-blue">Hands</text>
  <text x="415" y="1197" class="mono">POST /hands/action     {action, args}</text>
  <text x="415" y="1213" class="small">returns ok / failure + post-action evidence</text>

  <rect x="760" y="1163" width="340" height="64" rx="6" class="box-blue"/>
  <text x="775" y="1181" class="name-blue">Memory</text>
  <text x="775" y="1197" class="mono">GET  /memory/*</text>
  <text x="775" y="1213" class="mono">POST /memory/*         agent-side scratchpad</text>

  <!-- ============================================================ -->
  <!-- LAYER 8 — Container                                          -->
  <!-- ============================================================ -->
  <rect x="20" y="1250" width="1100" height="120" rx="8" class="layer"/>
  <text x="32" y="1268" class="layer-label">L8 · SANDBOX CONTAINER  ·  happysixd/osworld-docker</text>

  <rect x="40" y="1278" width="300" height="84" rx="6" class="box"/>
  <text x="55" y="1296" class="name">Docker host</text>
  <text x="55" y="1312" class="small">--privileged · --device /dev/kvm</text>
  <text x="55" y="1328" class="small">KVM=Y on Linux x86 host (fast)</text>
  <text x="55" y="1344" class="small">KVM=N falls back to QEMU TCG (slow)</text>
  <text x="55" y="1358" class="small">RAM=8G · CPU=6</text>

  <rect x="360" y="1278" width="380" height="84" rx="6" class="box"/>
  <text x="375" y="1296" class="name">Port mapping</text>
  <text x="375" y="1312" class="mono">8006 noVNC      5900 raw VNC</text>
  <text x="375" y="1328" class="mono">5000 OSWorld API  9222 Chrome devtools</text>
  <text x="375" y="1344" class="mono">8080 VLC</text>
  <text x="375" y="1358" class="small">firewall locked to operator IP (SOURCE_IP CIDR)</text>

  <rect x="760" y="1278" width="340" height="84" rx="6" class="box"/>
  <text x="775" y="1296" class="name">nginx reverse-proxy</text>
  <text x="775" y="1314" class="mono">location /agent/ {</text>
  <text x="775" y="1328" class="mono">  proxy_pass http://20.20.20.21:6090/;</text>
  <text x="775" y="1342" class="mono">}</text>
  <text x="775" y="1358" class="small">fronts the in-guest Python controller</text>

  <!-- ============================================================ -->
  <!-- LAYER 9 — Guest VM                                           -->
  <!-- ============================================================ -->
  <rect x="20" y="1385" width="1100" height="100" rx="8" class="layer"/>
  <text x="32" y="1403" class="layer-label">L9 · GUEST OS  ·  Ubuntu 22.04 (qcow2)</text>

  <rect x="40" y="1413" width="340" height="64" rx="6" class="box"/>
  <text x="55" y="1431" class="name">Python controller (Flask)</text>
  <text x="55" y="1447" class="mono">computer_agent.py :6090</text>
  <text x="55" y="1463" class="small">drives pyautogui · subprocess · X11</text>

  <rect x="400" y="1413" width="340" height="64" rx="6" class="box"/>
  <text x="415" y="1431" class="name">Trackers</text>
  <text x="415" y="1447" class="small">window_tracker_x11 · atspi_tracker</text>
  <text x="415" y="1463" class="small">xinput_tracker · event_indexer</text>

  <rect x="760" y="1413" width="340" height="64" rx="6" class="box"/>
  <text x="775" y="1431" class="name">X11 desktop 1024×1024×24</text>
  <text x="775" y="1447" class="small">Firefox · LibreOffice · Files</text>
  <text x="775" y="1463" class="small">Terminal · VLC · screen_recorder</text>

  <!-- ============================================================ -->
  <!-- RIGHT COLUMN — External services                             -->
  <!-- ============================================================ -->
  <rect x="1140" y="90" width="540" height="1395" rx="8" class="layer"/>
  <text x="1152" y="108" class="layer-label">EXTERNAL SERVICES · INFRASTRUCTURE</text>

  <!-- LLM provider -->
  <rect x="1160" y="125" width="500" height="120" rx="6" class="box-purple"/>
  <text x="1175" y="146" class="name-purple">LLM provider</text>
  <text x="1175" y="166" class="small">Primary: Google Gemini API — gemini-3.1-pro-preview</text>
  <text x="1175" y="184" class="small">Alt: OpenRouter (qwen/qwen3-30b-a3b, Anthropic, etc.)</text>
  <text x="1175" y="202" class="small">Alt: self-hosted vLLM (Qwen3-VL on Hetzner CPU)</text>
  <text x="1175" y="222" class="mono">env: GEMINI_API_KEY or OPENROUTER_API_KEY</text>
  <text x="1175" y="238" class="small">replaced $400/day Gemini direct with $0/day Hetzner CPU</text>

  <!-- Grounder host -->
  <rect x="1160" y="260" width="500" height="120" rx="6" class="box-blue"/>
  <text x="1175" y="281" class="name-blue">Grounder host</text>
  <text x="1175" y="301" class="small">GPU VM running vLLM — UI-TARS-1.5-7B</text>
  <text x="1175" y="319" class="small">24 GB+ VRAM · CUDA 13 · vLLM 0.20.1</text>
  <text x="1175" y="337" class="mono">docker run --gpus all -e VLLM_MODEL=ByteDance-Seed/UI-TARS-1.5-7B</text>
  <text x="1175" y="355" class="small">cloud-agnostic — bring your own GPU host</text>
  <text x="1175" y="373" class="small">on-demand pricing recommended (no eviction)</text>

  <!-- Sandbox host -->
  <rect x="1160" y="395" width="500" height="140" rx="6" class="box"/>
  <text x="1175" y="416" class="name">Sandbox host options</text>
  <text x="1175" y="436" class="small">A · Hetzner CCX33 — dedicated AMD, bare metal, €0.083/hr</text>
  <text x="1175" y="454" class="small">B · GCP n2-standard-8 spot — nested KVM, ~$0.10/hr</text>
  <text x="1175" y="472" class="small">C · Local Mac (Apple Silicon) — TCG fallback, slow boot</text>
  <text x="1175" y="490" class="small">D · Local Linux x86 with /dev/kvm — fastest local</text>
  <text x="1175" y="510" class="mono">deployment/gcloud-spot-sandbox.sh handles option B</text>
  <text x="1175" y="528" class="small">all options pull the same happysixd/osworld-docker image</text>

  <!-- Image registry -->
  <rect x="1160" y="550" width="500" height="90" rx="6" class="box-gray"/>
  <text x="1175" y="571" class="name">Image registry</text>
  <text x="1175" y="591" class="mono">docker.io/happysixd/osworld-docker:latest</text>
  <text x="1175" y="609" class="small">QEMU-in-Docker harness — same image, same look as OSWorld</text>
  <text x="1175" y="627" class="small">Ubuntu.qcow2 (~10 GB) from xlangai/ubuntu_osworld on Hugging Face</text>

  <!-- Persistence -->
  <rect x="1160" y="655" width="500" height="120" rx="6" class="box-green"/>
  <text x="1175" y="676" class="name-green">Persistence / observability</text>
  <text x="1175" y="696" class="small">RabbitMQ — task queue (decoupled run requests)</text>
  <text x="1175" y="714" class="small">Redis — VerdictCache + ephemeral session state</text>
  <text x="1175" y="732" class="small">JSONL traces — agent-replay-*.jsonl (one per run)</text>
  <text x="1175" y="750" class="small">Failure dumps — JSONL on first ok=false / unhandled error</text>
  <text x="1175" y="768" class="small">Token telemetry — per-call usage piped to Web UI live</text>

  <!-- Local VLM lab -->
  <rect x="1160" y="790" width="500" height="120" rx="6" class="box-gray"/>
  <text x="1175" y="811" class="name">Local VLM lab (research, off-path)</text>
  <text x="1175" y="831" class="small">~/projects/aistuff/ml-fastvlm/ · OpenAI-compatible shim :8770</text>
  <text x="1175" y="849" class="small">winner: mlx-community/Qwen3-VL-30B-A3B-Instruct-4bit (17 GB MoE)</text>
  <text x="1175" y="867" class="small">2–3 s warm screenshot ground at 1024²</text>
  <text x="1175" y="885" class="small">runtime gotchas: async handler, GenerationResult, mlx-vlm ≥0.4.4</text>
  <text x="1175" y="903" class="small">36 GB RAM ceiling on dev box</text>

  <!-- Self-hosted Qwen3-VL Hetzner CPU -->
  <rect x="1160" y="925" width="500" height="120" rx="6" class="box-gray"/>
  <text x="1175" y="946" class="name">Self-hosted Qwen3-VL stack (cost-saver)</text>
  <text x="1175" y="966" class="small">Hetzner CPU runs Qwen3-VL-30B-A3B Q4 (port 9091)</text>
  <text x="1175" y="984" class="small">+ UI-TARS-1.5 Q8 (port 9090) on the same box</text>
  <text x="1175" y="1002" class="small">~4 s warm vision call · do NOT run both encoders concurrently</text>
  <text x="1175" y="1020" class="small">drop-in for Gemini brain when budget matters</text>
  <text x="1175" y="1038" class="small">HTN runtime validated end-to-end on this stack (2026-05-08)</text>

  <!-- Skills bundle -->
  <rect x="1160" y="1060" width="500" height="100" rx="6" class="box-gray"/>
  <text x="1175" y="1081" class="name">Agent Skills bundle</text>
  <text x="1175" y="1101" class="small">SKILL.md + YAML frontmatter (Anthropic open format)</text>
  <text x="1175" y="1119" class="small">progressive disclosure: scripts/ references/ assets/</text>
  <text x="1175" y="1137" class="small">uitars-grounding skill — full deploy script + 5 reference docs</text>

  <!-- Config -->
  <rect x="1160" y="1175" width="500" height="140" rx="6" class="box"/>
  <text x="1175" y="1196" class="name">Configuration (config/application-dev.properties)</text>
  <text x="1175" y="1216" class="mono">nubian.agent.flow=seeact</text>
  <text x="1175" y="1230" class="mono">nubian.agent.max-steps=400</text>
  <text x="1175" y="1244" class="mono">nubian.agent.supervisor.enabled=true</text>
  <text x="1175" y="1258" class="mono">nubian.agent.supervisor.interval=10</text>
  <text x="1175" y="1272" class="mono">nubian.uground.enabled=true</text>
  <text x="1175" y="1286" class="mono">nubian.agent.best-of-n=1</text>
  <text x="1175" y="1304" class="mono">nubian.agent.observation-settle-ms=600</text>

  <!-- Security -->
  <rect x="1160" y="1330" width="500" height="100" rx="6" class="box-red"/>
  <text x="1175" y="1351" class="name-red">Security boundaries</text>
  <text x="1175" y="1371" class="small">Firewall: SOURCE_IP CIDR (default open in dev, lock in prod)</text>
  <text x="1175" y="1389" class="small">Secrets: .gitignore blocks .env, agent-replay-*.jsonl, .omc/</text>
  <text x="1175" y="1407" class="small">No costSafeModel name swap (was a silent downgrade trap)</text>
  <text x="1175" y="1425" class="small">No hint injection back to planner (only supervisor changes plan)</text>

  <!-- ====================== Footer arrows: per-turn flow numbered between layers ====================== -->
  <!-- L0 → L1 -->
  <path d="M 180 153 L 180 195" class="L" marker-end="url(#ar)"/>
  <text x="190" y="178" class="num">task</text>
  <!-- L1 → L2 -->
  <path d="M 280 258 L 280 300" class="L" marker-end="url(#ar)"/>
  <!-- L2 → L3 (planner) -->
  <path d="M 200 438 L 200 490" class="Lp" marker-end="url(#ar-p)"/>
  <text x="210" y="468" class="num-purple">plan call</text>
  <!-- L3 → L2 (verdict) -->
  <path d="M 320 490 L 320 438" class="Lp" marker-end="url(#ar-p)"/>
  <text x="330" y="468" class="num-purple">action</text>
  <!-- L2 → L4 (doom-loop fires) -->
  <path d="M 600 438 L 600 705" class="Lr" marker-end="url(#ar-r)"/>
  <text x="610" y="585" class="num-red">on signal</text>
  <!-- L4 → L3 supervisor (angry) -->
  <path d="M 700 708 L 700 650" class="Lr" marker-end="url(#ar-r)"/>
  <text x="710" y="685" class="num-red">supervisor</text>
  <!-- L3 → L5 grounding -->
  <path d="M 160 650 L 160 820" class="Lb" marker-end="url(#ar-b)"/>
  <text x="170" y="730" class="num-blue">description</text>
  <!-- L5 → L6 dispatch coords -->
  <path d="M 180 954 L 180 1004" class="Lb" marker-end="url(#ar-b)"/>
  <text x="190" y="984" class="num-blue">(x,y)</text>
  <!-- L6 → L7 sandbox -->
  <path d="M 200 1108 L 200 1160" class="Lb" marker-end="url(#ar-b)"/>
  <text x="210" y="1140" class="num-blue">POST</text>
  <!-- L7 → L8 -->
  <path d="M 200 1227 L 200 1275" class="L" marker-end="url(#ar)"/>
  <!-- L8 → L9 -->
  <path d="M 200 1362 L 200 1410" class="L" marker-end="url(#ar)"/>
  <!-- L9 back to L0 (noVNC visual) -->
  <path d="M 920 1413 C 1080 1300, 1080 200, 920 138" class="Lb" fill="none" marker-end="url(#ar-b)"/>
  <text x="1020" y="850" class="num-blue" transform="rotate(-90, 1020, 850)">live screenshot → noVNC + Web UI</text>

  <!-- L3 ↔ external LLM provider -->
  <path d="M 1100 570 L 1140 570 L 1160 200" class="Lp" fill="none" marker-end="url(#ar-p)"/>
  <text x="1108" y="565" class="num-purple">LLM HTTP</text>
  <!-- L5 ↔ external grounder host -->
  <path d="M 1100 890 L 1160 320" class="Lb" fill="none" marker-end="url(#ar-b)"/>
  <text x="1108" y="885" class="num-blue">grounder HTTP</text>
  <!-- L8 ↔ sandbox host (image pull) -->
  <path d="M 1100 1320 L 1160 595" class="Lg" fill="none" marker-end="url(#ar-g)"/>
  <text x="1108" y="1315" class="num-green">image pull</text>
</svg>
